<svg width="175" height="149" viewBox="0 0 175 149" fill="none" xmlns="http://www.w3.org/2000/svg">
<g clip-path="url(#clip0_4616_6661)">
<circle cx="87.687" cy="81.7584" r="81.185" fill="#E8F4FA"/>
</g>
<rect x="44.0664" y="54.6526" width="82.0783" height="92.5833" rx="2.5" fill="#F8F8F8" stroke="#464646"/>
<path d="M44.7461 56.672H123.682V114.797C123.682 115.662 123.126 116.428 122.305 116.698L44.7461 142.114V56.672Z" fill="#F2F1F1"/>
<rect x="56.7461" y="65.5331" width="17.4012" height="9.64546" rx="2" fill="#6DBFE8"/>
<rect x="54.1797" y="66.0332" width="16.4012" height="10.3666" rx="1.5" stroke="#464646"/>
<rect x="56.7461" y="88.423" width="17.4012" height="9.64546" rx="2" fill="#6DBFE8"/>
<rect x="56.7461" y="110.627" width="17.4012" height="9.64546" rx="2" fill="#6DBFE8"/>
<rect x="77.6133" y="66.5693" width="17.4012" height="9.64546" rx="2" fill="#6DBFE8"/>
<rect x="77.6133" y="89.4591" width="17.4012" height="9.64546" rx="2" fill="#6DBFE8"/>
<rect x="77.6133" y="111.663" width="17.4012" height="9.64546" rx="2" fill="#6DBFE8"/>
<rect x="96.752" y="66.5693" width="17.4012" height="9.64546" rx="2" fill="#6DBFE8"/>
<rect x="96.752" y="88.0802" width="17.4012" height="9.64546" rx="2" fill="#6DBFE8"/>
<rect x="96.752" y="110.335" width="17.4012" height="9.64546" rx="2" fill="#6DBFE8"/>
<rect x="54.1797" y="88.5802" width="16.4012" height="10.3666" rx="1.5" stroke="#464646"/>
<rect x="54.1797" y="111.127" width="16.4012" height="10.3666" rx="1.5" stroke="#464646"/>
<rect x="76.5781" y="66.0331" width="16.4012" height="10.3666" rx="1.5" stroke="#464646"/>
<rect x="76.5781" y="88.5802" width="16.4012" height="10.3666" rx="1.5" stroke="#464646"/>
<rect x="76.5781" y="111.127" width="16.4012" height="10.3666" rx="1.5" stroke="#464646"/>
<rect x="98.9766" y="66.0331" width="16.4012" height="10.3666" rx="1.5" stroke="#464646"/>
<rect x="98.9766" y="88.5802" width="16.4012" height="10.3666" rx="1.5" stroke="#464646"/>
<rect x="98.9766" y="111.127" width="16.4012" height="10.3666" rx="1.5" stroke="#464646"/>
<path d="M76.4062 131.557C76.4062 130.728 77.0778 130.057 77.9062 130.057H84.6066V146.709H76.4062V131.557Z" stroke="#464646"/>
<path d="M93.9805 131.481C93.9805 130.376 93.085 129.481 91.9805 129.481H84.7802V147.133H93.9805V131.481Z" fill="#464646"/>
<circle cx="77.8117" cy="139.232" r="0.5" fill="#D9D9D9" stroke="#464646" stroke-width="0.0686878"/>
<circle cx="21.5086" cy="78.5575" r="13.0243" fill="#FE7060"/>
<path d="M158.806 110.192C158.806 120.654 150.326 129.134 139.864 129.134C129.403 129.134 120.922 120.654 120.922 110.192C120.922 99.7305 129.403 69.6895 139.864 69.6895C150.326 69.6895 158.806 99.7305 158.806 110.192Z" fill="#74BF21"/>
<path d="M53.4744 110.192C53.4744 120.654 44.9937 129.134 34.5321 129.134C24.0706 129.134 15.5898 120.654 15.5898 110.192C15.5898 99.7305 24.0706 69.6895 34.5321 69.6895C44.9937 69.6895 53.4744 99.7305 53.4744 110.192Z" fill="#74BF21"/>
<path d="M36.3995 105.895V114.111M36.3995 147.604V120.114M36.3995 114.111L25.6562 103.052M36.3995 114.111V120.114M36.3995 120.114L42.0871 116.006M138.775 147.604V120.114M138.775 105.895V114.111M138.775 114.111L128.032 103.052M138.775 114.111V120.114M138.775 120.114L146.042 114.111" stroke="#464646"/>
<path d="M1.01172 147.92H174.164" stroke="#74BF21" stroke-linecap="round"/>
<circle cx="142.603" cy="54.1526" r="8.83564" transform="rotate(-45 142.603 54.1526)" fill="#E6B527"/>
<mask id="path-31-inside-1_4616_6661" fill="white">
<path fill-rule="evenodd" clip-rule="evenodd" d="M74.3224 15.1105C73.7701 15.1105 73.3224 15.5582 73.3224 16.1105V22.8671H70.3926C68.7357 22.8671 67.3926 24.2103 67.3926 25.8671V54.1526H101.578V25.8671C101.578 24.2103 100.235 22.8671 98.5777 22.8671H80.3862V16.1105C80.3862 15.5582 79.9384 15.1105 79.3862 15.1105H74.3224Z"/>
</mask>
<path fill-rule="evenodd" clip-rule="evenodd" d="M74.3224 15.1105C73.7701 15.1105 73.3224 15.5582 73.3224 16.1105V22.8671H70.3926C68.7357 22.8671 67.3926 24.2103 67.3926 25.8671V54.1526H101.578V25.8671C101.578 24.2103 100.235 22.8671 98.5777 22.8671H80.3862V16.1105C80.3862 15.5582 79.9384 15.1105 79.3862 15.1105H74.3224Z" fill="#E1E0E0"/>
<path d="M73.3224 22.8671V23.8671H74.3224V22.8671H73.3224ZM67.3926 54.1526H66.3926V55.1526H67.3926V54.1526ZM101.578 54.1526V55.1526H102.578V54.1526H101.578ZM80.3862 22.8671H79.3862V23.8671H80.3862V22.8671ZM74.3224 16.1105V16.1105V14.1105C73.2179 14.1105 72.3224 15.0059 72.3224 16.1105H74.3224ZM74.3224 22.8671V16.1105H72.3224V22.8671H74.3224ZM70.3926 23.8671H73.3224V21.8671H70.3926V23.8671ZM68.3926 25.8671C68.3926 24.7626 69.288 23.8671 70.3926 23.8671V21.8671C68.1834 21.8671 66.3926 23.658 66.3926 25.8671H68.3926ZM68.3926 54.1526V25.8671H66.3926V54.1526H68.3926ZM101.578 53.1526H67.3926V55.1526H101.578V53.1526ZM100.578 25.8671V54.1526H102.578V25.8671H100.578ZM98.5777 23.8671C99.6823 23.8671 100.578 24.7626 100.578 25.8671H102.578C102.578 23.658 100.787 21.8671 98.5777 21.8671V23.8671ZM80.3862 23.8671H98.5777V21.8671H80.3862V23.8671ZM79.3862 16.1105V22.8671H81.3862V16.1105H79.3862ZM79.3862 16.1105H79.3862H81.3862C81.3862 15.0059 80.4907 14.1105 79.3862 14.1105V16.1105ZM74.3224 16.1105H79.3862V14.1105H74.3224V16.1105Z" fill="#464646" mask="url(#path-31-inside-1_4616_6661)"/>
<path d="M76.0781 31.6642C76.0781 30.5597 76.9736 29.6642 78.0781 29.6642H93.0133C94.1179 29.6642 95.0133 30.5597 95.0133 31.6642V54.1526H76.0781V31.6642Z" fill="#E6B527"/>
<mask id="path-34-inside-2_4616_6661" fill="white">
<path fill-rule="evenodd" clip-rule="evenodd" d="M50.6621 42.9718C49.0053 42.9718 47.6621 44.3149 47.6621 45.9718V55.1083H123.682V45.9718C123.682 44.3149 122.339 42.9718 120.682 42.9718H50.6621ZM54.666 45.7726C54.1137 45.7726 53.666 46.2203 53.666 46.7726V51.7078C53.666 52.2601 54.1137 52.7078 54.666 52.7078H56.4009C56.9532 52.7078 57.4009 52.2601 57.4009 51.7078V46.7726C57.4009 46.2203 56.9532 45.7726 56.4009 45.7726H54.666ZM61.1992 46.7726C61.1992 46.2203 61.6469 45.7726 62.1992 45.7726H63.9341C64.4864 45.7726 64.9341 46.2203 64.9341 46.7726V51.7078C64.9341 52.2601 64.4864 52.7078 63.9341 52.7078H62.1992C61.6469 52.7078 61.1992 52.2601 61.1992 51.7078V46.7726ZM69.7344 45.7726C69.1821 45.7726 68.7344 46.2203 68.7344 46.7726V51.7078C68.7344 52.2601 69.1821 52.7078 69.7344 52.7078H71.4692C72.0215 52.7078 72.4692 52.2601 72.4692 51.7078V46.7726C72.4692 46.2203 72.0215 45.7726 71.4692 45.7726H69.7344ZM76.2676 46.7726C76.2676 46.2203 76.7153 45.7726 77.2676 45.7726H79.0024C79.5547 45.7726 80.0024 46.2203 80.0024 46.7726V51.7078C80.0024 52.2601 79.5547 52.7078 79.0024 52.7078H77.2676C76.7153 52.7078 76.2676 52.2601 76.2676 51.7078V46.7726ZM84.8027 45.7726C84.2505 45.7726 83.8027 46.2203 83.8027 46.7726V51.7078C83.8027 52.2601 84.2505 52.7078 84.8027 52.7078H86.5376C87.0899 52.7078 87.5376 52.2601 87.5376 51.7078V46.7726C87.5376 46.2203 87.0899 45.7726 86.5376 45.7726H84.8027ZM91.3359 46.7726C91.3359 46.2203 91.7837 45.7726 92.3359 45.7726H94.0708C94.6231 45.7726 95.0708 46.2203 95.0708 46.7726V51.7078C95.0708 52.2601 94.6231 52.7078 94.0708 52.7078H92.3359C91.7837 52.7078 91.3359 52.2601 91.3359 51.7078V46.7726ZM99.8711 45.7726C99.3188 45.7726 98.8711 46.2203 98.8711 46.7726V51.7078C98.8711 52.2601 99.3188 52.7078 99.8711 52.7078H101.606C102.158 52.7078 102.606 52.2601 102.606 51.7078V46.7726C102.606 46.2203 102.158 45.7726 101.606 45.7726H99.8711ZM106.404 46.7726C106.404 46.2203 106.852 45.7726 107.404 45.7726H109.139C109.691 45.7726 110.139 46.2203 110.139 46.7726V51.7078C110.139 52.2601 109.691 52.7078 109.139 52.7078H107.404C106.852 52.7078 106.404 52.2601 106.404 51.7078V46.7726ZM114.938 45.7726C114.385 45.7726 113.938 46.2203 113.938 46.7726V51.7078C113.938 52.2601 114.385 52.7078 114.938 52.7078H116.672C117.225 52.7078 117.672 52.2601 117.672 51.7078V46.7726C117.672 46.2203 117.225 45.7726 116.672 45.7726H114.938Z"/>
</mask>
<path fill-rule="evenodd" clip-rule="evenodd" d="M50.6621 42.9718C49.0053 42.9718 47.6621 44.3149 47.6621 45.9718V55.1083H123.682V45.9718C123.682 44.3149 122.339 42.9718 120.682 42.9718H50.6621ZM54.666 45.7726C54.1137 45.7726 53.666 46.2203 53.666 46.7726V51.7078C53.666 52.2601 54.1137 52.7078 54.666 52.7078H56.4009C56.9532 52.7078 57.4009 52.2601 57.4009 51.7078V46.7726C57.4009 46.2203 56.9532 45.7726 56.4009 45.7726H54.666ZM61.1992 46.7726C61.1992 46.2203 61.6469 45.7726 62.1992 45.7726H63.9341C64.4864 45.7726 64.9341 46.2203 64.9341 46.7726V51.7078C64.9341 52.2601 64.4864 52.7078 63.9341 52.7078H62.1992C61.6469 52.7078 61.1992 52.2601 61.1992 51.7078V46.7726ZM69.7344 45.7726C69.1821 45.7726 68.7344 46.2203 68.7344 46.7726V51.7078C68.7344 52.2601 69.1821 52.7078 69.7344 52.7078H71.4692C72.0215 52.7078 72.4692 52.2601 72.4692 51.7078V46.7726C72.4692 46.2203 72.0215 45.7726 71.4692 45.7726H69.7344ZM76.2676 46.7726C76.2676 46.2203 76.7153 45.7726 77.2676 45.7726H79.0024C79.5547 45.7726 80.0024 46.2203 80.0024 46.7726V51.7078C80.0024 52.2601 79.5547 52.7078 79.0024 52.7078H77.2676C76.7153 52.7078 76.2676 52.2601 76.2676 51.7078V46.7726ZM84.8027 45.7726C84.2505 45.7726 83.8027 46.2203 83.8027 46.7726V51.7078C83.8027 52.2601 84.2505 52.7078 84.8027 52.7078H86.5376C87.0899 52.7078 87.5376 52.2601 87.5376 51.7078V46.7726C87.5376 46.2203 87.0899 45.7726 86.5376 45.7726H84.8027ZM91.3359 46.7726C91.3359 46.2203 91.7837 45.7726 92.3359 45.7726H94.0708C94.6231 45.7726 95.0708 46.2203 95.0708 46.7726V51.7078C95.0708 52.2601 94.6231 52.7078 94.0708 52.7078H92.3359C91.7837 52.7078 91.3359 52.2601 91.3359 51.7078V46.7726ZM99.8711 45.7726C99.3188 45.7726 98.8711 46.2203 98.8711 46.7726V51.7078C98.8711 52.2601 99.3188 52.7078 99.8711 52.7078H101.606C102.158 52.7078 102.606 52.2601 102.606 51.7078V46.7726C102.606 46.2203 102.158 45.7726 101.606 45.7726H99.8711ZM106.404 46.7726C106.404 46.2203 106.852 45.7726 107.404 45.7726H109.139C109.691 45.7726 110.139 46.2203 110.139 46.7726V51.7078C110.139 52.2601 109.691 52.7078 109.139 52.7078H107.404C106.852 52.7078 106.404 52.2601 106.404 51.7078V46.7726ZM114.938 45.7726C114.385 45.7726 113.938 46.2203 113.938 46.7726V51.7078C113.938 52.2601 114.385 52.7078 114.938 52.7078H116.672C117.225 52.7078 117.672 52.2601 117.672 51.7078V46.7726C117.672 46.2203 117.225 45.7726 116.672 45.7726H114.938Z" fill="#C4C4C4"/>
<path d="M47.6621 55.1083H46.6621V56.1083H47.6621V55.1083ZM123.682 55.1083V56.1083H124.682V55.1083H123.682ZM48.6621 45.9718C48.6621 44.8672 49.5575 43.9718 50.6621 43.9718V41.9718C48.453 41.9718 46.6621 43.7627 46.6621 45.9718H48.6621ZM48.6621 55.1083V45.9718H46.6621V55.1083H48.6621ZM123.682 54.1083H47.6621V56.1083H123.682V54.1083ZM122.682 45.9718V55.1083H124.682V45.9718H122.682ZM120.682 43.9718C121.787 43.9718 122.682 44.8672 122.682 45.9718H124.682C124.682 43.7627 122.891 41.9718 120.682 41.9718V43.9718ZM50.6621 43.9718H120.682V41.9718H50.6621V43.9718ZM54.666 46.7726V46.7726V44.7726C53.5614 44.7726 52.666 45.668 52.666 46.7726H54.666ZM54.666 51.7078V46.7726H52.666V51.7078H54.666ZM54.666 51.7078H54.666H52.666C52.666 52.8123 53.5614 53.7078 54.666 53.7078V51.7078ZM56.4009 51.7078H54.666V53.7078H56.4009V51.7078ZM56.4009 51.7078V53.7078C57.5055 53.7078 58.4009 52.8123 58.4009 51.7078H56.4009ZM56.4009 46.7726V51.7078H58.4009V46.7726H56.4009ZM56.4009 46.7726H56.4009H58.4009C58.4009 45.668 57.5055 44.7726 56.4009 44.7726V46.7726ZM54.666 46.7726H56.4009V44.7726H54.666V46.7726ZM62.1992 44.7726C61.0946 44.7726 60.1992 45.668 60.1992 46.7726H62.1992V46.7726V44.7726ZM63.9341 44.7726H62.1992V46.7726H63.9341V44.7726ZM65.9341 46.7726C65.9341 45.668 65.0387 44.7726 63.9341 44.7726V46.7726H63.9341H65.9341ZM65.9341 51.7078V46.7726H63.9341V51.7078H65.9341ZM63.9341 53.7078C65.0387 53.7078 65.9341 52.8123 65.9341 51.7078H63.9341V53.7078ZM62.1992 53.7078H63.9341V51.7078H62.1992V53.7078ZM60.1992 51.7078C60.1992 52.8123 61.0946 53.7078 62.1992 53.7078V51.7078H62.1992H60.1992ZM60.1992 46.7726V51.7078H62.1992V46.7726H60.1992ZM69.7344 46.7726V46.7726V44.7726C68.6298 44.7726 67.7344 45.668 67.7344 46.7726H69.7344ZM69.7344 51.7078V46.7726H67.7344V51.7078H69.7344ZM69.7344 51.7078H69.7344H67.7344C67.7344 52.8123 68.6298 53.7078 69.7344 53.7078V51.7078ZM71.4692 51.7078H69.7344V53.7078H71.4692V51.7078ZM71.4692 51.7078V53.7078C72.5738 53.7078 73.4692 52.8123 73.4692 51.7078H71.4692ZM71.4692 46.7726V51.7078H73.4692V46.7726H71.4692ZM71.4692 46.7726H71.4692H73.4692C73.4692 45.668 72.5738 44.7726 71.4692 44.7726V46.7726ZM69.7344 46.7726H71.4692V44.7726H69.7344V46.7726ZM77.2676 44.7726C76.163 44.7726 75.2676 45.668 75.2676 46.7726H77.2676V46.7726V44.7726ZM79.0024 44.7726H77.2676V46.7726H79.0024V44.7726ZM81.0024 46.7726C81.0024 45.668 80.107 44.7726 79.0024 44.7726V46.7726H79.0024H81.0024ZM81.0024 51.7078V46.7726H79.0024V51.7078H81.0024ZM79.0024 53.7078C80.107 53.7078 81.0024 52.8123 81.0024 51.7078H79.0024V53.7078ZM77.2676 53.7078H79.0024V51.7078H77.2676V53.7078ZM75.2676 51.7078C75.2676 52.8123 76.163 53.7078 77.2676 53.7078V51.7078H77.2676H75.2676ZM75.2676 46.7726V51.7078H77.2676V46.7726H75.2676ZM84.8027 46.7726V46.7726V44.7726C83.6982 44.7726 82.8027 45.668 82.8027 46.7726H84.8027ZM84.8027 51.7078V46.7726H82.8027V51.7078H84.8027ZM84.8027 51.7078H82.8027C82.8027 52.8123 83.6982 53.7078 84.8027 53.7078V51.7078ZM86.5376 51.7078H84.8027V53.7078H86.5376V51.7078ZM86.5376 51.7078V53.7078C87.6422 53.7078 88.5376 52.8123 88.5376 51.7078H86.5376ZM86.5376 46.7726V51.7078H88.5376V46.7726H86.5376ZM86.5376 46.7726H88.5376C88.5376 45.668 87.6422 44.7726 86.5376 44.7726V46.7726ZM84.8027 46.7726H86.5376V44.7726H84.8027V46.7726ZM92.3359 44.7726C91.2314 44.7726 90.3359 45.668 90.3359 46.7726H92.3359V46.7726V44.7726ZM94.0708 44.7726H92.3359V46.7726H94.0708V44.7726ZM96.0708 46.7726C96.0708 45.668 95.1754 44.7726 94.0708 44.7726V46.7726H96.0708ZM96.0708 51.7078V46.7726H94.0708V51.7078H96.0708ZM94.0708 53.7078C95.1754 53.7078 96.0708 52.8123 96.0708 51.7078H94.0708V53.7078ZM92.3359 53.7078H94.0708V51.7078H92.3359V53.7078ZM90.3359 51.7078C90.3359 52.8123 91.2314 53.7078 92.3359 53.7078V51.7078H90.3359ZM90.3359 46.7726V51.7078H92.3359V46.7726H90.3359ZM99.8711 46.7726V46.7726V44.7726C98.7665 44.7726 97.8711 45.668 97.8711 46.7726H99.8711ZM99.8711 51.7078V46.7726H97.8711V51.7078H99.8711ZM99.8711 51.7078H97.8711C97.8711 52.8123 98.7665 53.7078 99.8711 53.7078V51.7078ZM101.606 51.7078H99.8711V53.7078H101.606V51.7078ZM101.606 51.7078V53.7078C102.711 53.7078 103.606 52.8123 103.606 51.7078H101.606ZM101.606 46.7726V51.7078H103.606V46.7726H101.606ZM101.606 46.7726H103.606C103.606 45.668 102.711 44.7726 101.606 44.7726V46.7726ZM99.8711 46.7726H101.606V44.7726H99.8711V46.7726ZM107.404 44.7726C106.3 44.7726 105.404 45.668 105.404 46.7726H107.404V46.7726V44.7726ZM109.139 44.7726H107.404V46.7726H109.139V44.7726ZM111.139 46.7726C111.139 45.668 110.244 44.7726 109.139 44.7726V46.7726H111.139ZM111.139 51.7078V46.7726H109.139V51.7078H111.139ZM109.139 53.7078C110.244 53.7078 111.139 52.8123 111.139 51.7078H109.139V53.7078ZM107.404 53.7078H109.139V51.7078H107.404V53.7078ZM105.404 51.7078C105.404 52.8123 106.3 53.7078 107.404 53.7078V51.7078H105.404ZM105.404 46.7726V51.7078H107.404V46.7726H105.404ZM114.938 46.7726V46.7726V44.7726C113.833 44.7726 112.938 45.668 112.938 46.7726H114.938ZM114.938 51.7078V46.7726H112.938V51.7078H114.938ZM114.938 51.7078H112.938C112.938 52.8123 113.833 53.7078 114.938 53.7078V51.7078ZM116.672 51.7078H114.938V53.7078H116.672V51.7078ZM116.672 51.7078V53.7078C117.777 53.7078 118.672 52.8123 118.672 51.7078H116.672ZM116.672 46.7726V51.7078H118.672V46.7726H116.672ZM116.672 46.7726H118.672C118.672 45.668 117.777 44.7726 116.672 44.7726V46.7726ZM114.938 46.7726H116.672V44.7726H114.938V46.7726Z" fill="#464646" mask="url(#path-34-inside-2_4616_6661)"/>
<defs>
<clipPath id="clip0_4616_6661">
<rect width="162" height="147" fill="white" transform="translate(6.50195 0.573364)"/>
</clipPath>
</defs>
</svg>
