<?xml version="1.0" encoding="UTF-8"?>
<svg width="120px" height="109px" viewBox="0 0 120 109" version="1.1" xmlns="http://www.w3.org/2000/svg" xmlns:xlink="http://www.w3.org/1999/xlink">
    <!-- Generator: Sketch 51.3 (57544) - http://www.bohemiancoding.com/sketch -->
    <title>log-in</title>
    <desc>Created with Sketch.</desc>
    <defs></defs>
    <g id="Page-1" stroke="none" stroke-width="1" fill="none" fill-rule="evenodd">
        <g id="01-hms-log-in-house-owner" transform="translate(-660.000000, -159.000000)">
            <g id="log-in" transform="translate(660.000000, 159.000000)">
                <g id="Background">
                    <g id="New_Symbol_25">
                        <path d="M114.074074,54.3209877 C114.071996,32.1371256 100.580764,12.1835285 79.9945569,3.91722098 C59.4083503,-4.34908651 35.8641131,0.733068297 20.520657,16.7549937 C5.1772008,32.7769192 1.11790118,56.5188965 10.2666667,76.7283951 L109.239506,76.7283951 C112.432579,69.6901697 114.081078,62.0496538 114.074074,54.3209877 Z" id="Shape" fill="#E8F4FA" fill-rule="nonzero"></path>
                        <path d="M10.2666667,76.7283951 C19.0640345,96.1616604 38.4212913,108.647062 59.7530864,108.647062 C81.0848815,108.647062 100.442138,96.1616604 109.239506,76.7283951 L10.2666667,76.7283951 Z" id="Shape" fill="#FFFFFF" fill-rule="nonzero"></path>
                        <path d="M6.79012346,76.7283951 L112.716049,76.7283951" id="Shape" stroke="#191816" stroke-linecap="round" stroke-linejoin="round"></path>
                        <path d="M0.679012346,76.7283951 L4.07407407,76.7283951" id="Shape" stroke="#191816" stroke-linecap="round" stroke-linejoin="round"></path>
                        <path d="M115.432099,76.7283951 L118.82716,76.7283951" id="Shape" stroke="#191816" stroke-linecap="round" stroke-linejoin="round"></path>
                    </g>
                </g>
                <g id="Scene" transform="translate(14.938272, 10.864198)">
                    <path d="M68.1864198,33.4209877 L60.6901235,33.4209877 L62.4691358,17.9395062 C62.571356,17.1625132 63.2335959,16.581601 64.017284,16.5814815 L64.8320988,16.5814815 C65.6157868,16.581601 66.2780267,17.1625132 66.3802469,17.9395062 L68.1864198,33.4209877 Z" id="Shape" stroke="#191816" fill="#FFA694" fill-rule="nonzero" stroke-linecap="round" stroke-linejoin="round"></path>
                    <path d="M70.5358025,25.9246914 C70.5358025,25.5104952 70.3712637,25.1132635 70.0783828,24.8203826 C69.7855019,24.5275017 69.3882702,24.362963 68.9740741,24.362963 L59.291358,24.362963 L59.291358,33.5703704 L70.5358025,33.5703704 L70.5358025,25.9246914 Z" id="Shape" stroke="#191816" fill="#BF8256" fill-rule="nonzero" stroke-linecap="round" stroke-linejoin="round"></path>
                    <polygon id="Shape" fill="#FFF5E3" fill-rule="nonzero" points="40.0753086 20.5876543 40.0753086 65.7419753 72.0975309 65.7419753 72.0975309 36.5851852"></polygon>
                    <polygon id="Shape" fill="#F7E5C6" fill-rule="nonzero" points="40.0753086 20.5876543 40.0753086 25.2728395 72.0975309 41.2703704 72.0975309 36.5851852"></polygon>
                    <polygon id="Shape" stroke="#191816" stroke-linecap="round" stroke-linejoin="round" points="40.0753086 20.5876543 40.0753086 65.7419753 72.0975309 65.7419753 72.0975309 36.5851852"></polygon>
                    <path d="M65.062963,52.4740741 C65.0666223,52.058767 64.9032588,51.6594056 64.609581,51.3657277 C64.3159031,51.0720498 63.9165417,50.9086864 63.5012346,50.9123457 L47.8839506,50.9123457 C47.0214318,50.9123457 46.3222222,51.6115553 46.3222222,52.4740741 L46.3222222,65.7148148 L65.0630231,65.7148148 L65.062963,52.4740741 Z" id="Shape" fill="#00B8F0" fill-rule="nonzero"></path>
                    <path d="M56.4938272,50.9123457 L47.8839506,50.9123457 C47.0214318,50.9123457 46.3222222,51.6115553 46.3222222,52.4740741 L46.3222222,61.1111111 L56.4938272,50.9123457 Z" id="Shape" fill="#4ACFFF" fill-rule="nonzero"></path>
                    <path d="M65.062963,52.4740741 C65.0666223,52.058767 64.9032588,51.6594056 64.609581,51.3657277 C64.3159031,51.0720498 63.9165417,50.9086864 63.5012346,50.9123457 L47.8839506,50.9123457 C47.0214318,50.9123457 46.3222222,51.6115553 46.3222222,52.4740741 L46.3222222,65.7148148 L65.0630231,65.7148148 L65.062963,52.4740741 Z" id="Shape" stroke="#191816" stroke-linecap="round" stroke-linejoin="round"></path>
                    <path d="M76.0493827,36.0148148 C76.0425916,36.5506151 75.7592161,37.0448064 75.3002229,37.3213083 C74.8412297,37.5978102 74.2718909,37.6173023 73.7950617,37.3728395 L37.508642,19.2975309 C36.9916713,19.0386499 36.6580563,18.5173763 36.6395062,17.9395062 L36.6395062,15.7666667 C36.6304479,15.2136702 36.914547,14.6971264 37.3864198,14.408642 C37.8488594,14.1287618 38.4218677,14.103181 38.9074074,14.3407407 L75.1395062,32.4839506 C75.7074662,32.74841 76.064727,33.3242931 76.0493827,33.9506173 L76.0493827,36.0148148 Z" id="Shape" stroke="#191816" fill="#FF6242" fill-rule="nonzero" stroke-linecap="round" stroke-linejoin="round"></path>
                    <circle id="Oval" fill="#00B8F0" fill-rule="nonzero" cx="49.445679" cy="37.6308642" r="3.91111111"></circle>
                    <path d="M55.6925926,50.9123457 L55.6925926,65.7148148" id="Shape" stroke="#191816" stroke-linecap="round" stroke-linejoin="round"></path>
                    <polygon id="Shape" fill="#FFF5E3" fill-rule="nonzero" points="13.5259259 65.7419753 40.0753086 65.7419753 40.0753086 33.8555556 13.5259259 46.8925926"></polygon>
                    <polygon id="Shape" fill="#F7E5C6" fill-rule="nonzero" points="13.5259259 46.8925926 13.5259259 50.7901235 40.0753086 37.7666667 40.0753086 33.8555556"></polygon>
                    <polygon id="Shape" stroke="#191816" stroke-linecap="round" stroke-linejoin="round" points="13.5259259 65.7419753 40.0753086 65.7419753 40.0753086 33.8555556 13.5259259 46.8925926"></polygon>
                    <path d="M40.0753086,28.2333333 L10.4839506,42.791358 C9.97224563,43.0539144 9.64429582,43.5744697 9.62839506,44.1493827 L9.62839506,46.2814815 C9.63518618,46.8172818 9.91856164,47.311473 10.3775549,47.587975 C10.8365481,47.8644769 11.4058869,47.883969 11.882716,47.6395062 L40.0753086,33.8555556 L40.0753086,28.2333333 Z" id="Shape" stroke="#191816" fill="#FF6242" fill-rule="nonzero" stroke-linecap="round" stroke-linejoin="round"></path>
                    <path d="M36.1777778,52.4740741 C36.1777778,51.6115553 35.4785682,50.9123457 34.6160494,50.9123457 L19.0123457,50.9123457 C18.5970386,50.9086864 18.1976772,51.0720498 17.9039993,51.3657277 C17.6103214,51.6594056 17.446958,52.058767 17.4506173,52.4740741 L17.4505571,65.7419753 L36.191358,65.7419753 L36.1777778,52.4740741 Z" id="Shape" stroke="#191816" fill="#DAEDF7" fill-rule="nonzero" stroke-linecap="round" stroke-linejoin="round"></path>
                    <path d="M17.437037,54.8098765 L36.1777778,54.8098765" id="Shape" stroke="#191816" stroke-linecap="round" stroke-linejoin="round"></path>
                    <path d="M17.437037,58.7209877 L36.1777778,58.7209877" id="Shape" stroke="#191816" stroke-linecap="round" stroke-linejoin="round"></path>
                    <path d="M17.437037,62.6185185 L36.1777778,62.6185185" id="Shape" stroke="#191816" stroke-linecap="round" stroke-linejoin="round"></path>
                    <path d="M52.3790123,35.0777778 C51.4716925,33.8506461 49.9298092,33.2686028 48.4379153,33.5900588 C46.9460213,33.9115147 45.7806505,35.0768855 45.4591946,36.5687795 C45.1377387,38.0606734 45.7197819,39.6025567 46.9469136,40.5098765 L52.3790123,35.0777778 Z" id="Shape" fill="#4ACFFF" fill-rule="nonzero"></path>
                    <circle id="Oval" stroke="#191816" cx="49.445679" cy="37.6308642" r="3.91111111"></circle>
                    <path d="M83.8037037,65.7419753 L83.8037037,60.2555556" id="Shape" stroke="#191816" stroke-linecap="round" stroke-linejoin="round"></path>
                    <path d="M89.2765432,55.5975309 C89.2765432,58.5975962 86.8445098,61.0296296 83.8444444,61.0296296 C80.8443791,61.0296296 78.4123457,58.5975962 78.4123457,55.5975309 C78.4123457,53.2753086 81.6308642,42.0851852 83.1246914,37.0197531 C83.21639,36.6827749 83.522373,36.4489295 83.8716049,36.4489295 C84.2208369,36.4489295 84.5268198,36.6827749 84.6185185,37.0197531 C86.0444444,42.0987654 89.2765432,53.2753086 89.2765432,55.5975309 Z" id="Shape" fill="#6DD627" fill-rule="nonzero"></path>
                    <path d="M89.2765432,55.5975309 C89.2765432,58.5975962 86.8445098,61.0296296 83.8444444,61.0296296 C80.8443791,61.0296296 78.4123457,58.5975962 78.4123457,55.5975309 C78.4123457,53.2753086 81.6308642,42.0851852 83.1246914,37.0197531 C83.21639,36.6827749 83.522373,36.4489295 83.8716049,36.4489295 C84.2208369,36.4489295 84.5268198,36.6827749 84.6185185,37.0197531 C86.0444444,42.0987654 89.2765432,53.2753086 89.2765432,55.5975309 Z" id="Shape" fill="#6DD627" fill-rule="nonzero"></path>
                    <path d="M86.9950617,45.5617284 C86.1259259,42.3703704 85.1888889,39.1518519 84.5506173,37.0197531 C84.4589186,36.6827749 84.1529356,36.4489295 83.8037037,36.4489295 C83.4544718,36.4489295 83.1484888,36.6827749 83.0567901,37.0197531 C82.4320988,39.1518519 81.4950617,42.3703704 80.6259259,45.5617284 C82.6236064,44.5299238 84.9973813,44.5299238 86.9950617,45.5617284 Z" id="Shape" fill="#9CEB60" fill-rule="nonzero"></path>
                    <path d="M89.2765432,55.5975309 C89.2765432,58.5975962 86.8445098,61.0296296 83.8444444,61.0296296 C80.8443791,61.0296296 78.4123457,58.5975962 78.4123457,55.5975309 C78.4123457,53.2753086 81.6308642,42.0851852 83.1246914,37.0197531 C83.21639,36.6827749 83.522373,36.4489295 83.8716049,36.4489295 C84.2208369,36.4489295 84.5268198,36.6827749 84.6185185,37.0197531 C86.0444444,42.0987654 89.2765432,53.2753086 89.2765432,55.5975309 Z" id="Shape" stroke="#191816" stroke-linecap="round" stroke-linejoin="round"></path>
                    <path d="M19.7728395,5.9345679 C19.3079611,5.93435425 18.8472201,6.02189505 18.4148148,6.19259259 C17.8586401,3.25605319 15.2924483,1.13027177 12.3037037,1.13027177 C9.31495916,1.13027177 6.7487673,3.25605319 6.19259259,6.19259259 C4.78824739,5.64270745 3.19111422,5.98809015 2.13945086,7.0690912 C1.0877875,8.15009226 0.786468652,9.75612169 1.37477575,11.1448095 C1.96308285,12.5334973 3.32640769,13.434313 4.8345679,13.4308642 L19.7728395,13.4308642 C21.8428846,13.4308642 23.5209877,11.7527611 23.5209877,9.68271605 C23.5209877,7.61267099 21.8428846,5.9345679 19.7728395,5.9345679 Z" id="Shape" stroke="#191816" fill="#FFFFFF" fill-rule="nonzero" stroke-linejoin="round"></path>
                    <path d="M19.7728395,5.9345679 C19.3079611,5.93435425 18.8472201,6.02189505 18.4148148,6.19259259 C17.8586401,3.25605319 15.2924483,1.13027177 12.3037037,1.13027177 C9.31495916,1.13027177 6.7487673,3.25605319 6.19259259,6.19259259 C4.78824739,5.64270745 3.19111422,5.98809015 2.13945086,7.0690912 C1.0877875,8.15009226 0.786468652,9.75612169 1.37477575,11.1448095 C1.96308285,12.5334973 3.32640769,13.434313 4.8345679,13.4308642 L19.7728395,13.4308642 C21.8428846,13.4308642 23.5209877,11.7527611 23.5209877,9.68271605 C23.5209877,7.61267099 21.8428846,5.9345679 19.7728395,5.9345679 Z" id="Shape" stroke="#191816" fill="#FFFFFF" fill-rule="nonzero" stroke-linejoin="round"></path>
                </g>
            </g>
        </g>
    </g>
</svg>