<svg width="102" height="98" viewBox="0 0 102 98" fill="none" xmlns="http://www.w3.org/2000/svg">
<g id="add-counter">
<g id="Group 48">
<g id="info">
<g id="Group 47">
<path id="Shape" d="M101.248 49.1031C101.246 29.4063 89.2677 11.6897 70.9894 4.35018C52.7112 -2.98937 31.8065 1.52301 18.1833 15.7487C4.56 29.9744 0.955798 51.0546 9.07888 68.9983H96.9557C99.7907 62.7492 101.254 55.9653 101.248 49.1031Z" fill="#E8F4FA"/>
<path id="Shape_2" d="M9.20703 68.9609C17.0181 86.2155 34.2052 97.3011 53.1454 97.3011C72.0857 97.3011 89.2727 86.2155 97.0838 68.9609H9.20703Z" fill="white"/>
<path id="Shape_3" d="M6.55273 68.9609H100.603" stroke="#191816" stroke-linecap="round" stroke-linejoin="round"/>
<path id="Shape_4" d="M1.24805 68.9609H4.26248" stroke="#191816" stroke-linecap="round" stroke-linejoin="round"/>
</g>
<g id="29-programming-information">
<g id="Scene">
<ellipse id="Oval" opacity="0.15" cx="53.4171" cy="89.7025" rx="17.6847" ry="2.17269" fill="#191816"/>
<g id="Group 45">
<circle id="Oval_2" cx="53.7959" cy="48.6234" r="33.6009" transform="rotate(-89.69 53.7959 48.6234)" fill="#FF6242" stroke="black"/>
<ellipse id="Oval_3" cx="53.7967" cy="48.6237" rx="29.1797" ry="28.2955" transform="rotate(-89.69 53.7967 48.6237)" fill="#F0F0F0" stroke="black"/>
<path id="Path" opacity="0.43" fill-rule="evenodd" clip-rule="evenodd" d="M53.5164 29.1098C68.7622 29.1311 81.852 39.7933 84.7307 54.5352C85.1138 52.6035 85.3081 50.6402 85.3112 48.672C85.9501 37.0851 80.0354 26.0987 69.9377 20.116C59.8399 14.1332 47.2116 14.1332 37.1139 20.116C27.0161 26.0987 21.1015 37.0851 21.7403 48.672C21.7434 50.6402 21.9378 52.6035 22.3208 54.5352C25.1982 39.8001 38.2777 29.1399 53.5164 29.1098Z" fill="white"/>
</g>
</g>
</g>
</g>
<g id="speedometer-speed-car-road">
<path id="Path_2" d="M57.4043 61.1461C57.4043 59.2198 55.8373 57.6528 53.911 57.6528C51.9847 57.6528 50.4178 59.2198 50.4178 61.1461C50.4178 61.7459 49.9584 62.2224 49.375 62.2861C50.8658 62.3646 52.3736 62.4174 53.911 62.4174C55.4269 62.4174 56.9528 62.3754 58.4743 62.2918C57.8774 62.2412 57.4043 61.7556 57.4043 61.1461Z" fill="#FE8657"/>
<path id="Path_3" d="M75.3764 36.6171C75.1797 36.2584 74.975 35.9058 74.7613 35.5573C74.4235 35.0092 73.7048 34.8386 73.159 35.1747C72.6109 35.5113 72.4392 36.2282 72.7758 36.7763C72.9691 37.0907 73.1555 37.4102 73.3318 37.7338C73.5445 38.121 73.9436 38.3399 74.3553 38.3399C74.544 38.3399 74.7351 38.2938 74.9124 38.1971C75.4765 37.8885 75.6846 37.1811 75.3764 36.6171Z" fill="#7A7A7A"/>
<path id="Path_4" d="M49.569 24.2685C49.1653 24.3413 48.7661 24.4232 48.3704 24.5158C47.7439 24.6625 47.3549 25.2891 47.5017 25.9151C47.6279 26.4518 48.1054 26.814 48.6343 26.814C48.7217 26.814 48.8116 26.8043 48.9004 26.7833C49.2574 26.6997 49.6179 26.6258 49.9806 26.5609C50.6139 26.4473 51.0347 25.8418 50.921 25.2089C50.8074 24.5766 50.2046 24.1548 49.569 24.2685Z" fill="#7A7A7A"/>
<path id="Path_5" d="M55.5733 26.2721C56.1793 26.2721 56.6899 25.8036 56.7331 25.1902C56.7787 24.5482 56.2954 23.9916 55.6541 23.9461C55.2504 23.9177 54.8433 23.8989 54.4339 23.8899C53.796 23.8779 53.2581 24.3868 53.2444 25.0287C53.2308 25.6718 53.7402 26.2045 54.3839 26.2187C54.7545 26.2266 55.123 26.2432 55.4902 26.2694C55.5176 26.271 55.546 26.2721 55.5733 26.2721Z" fill="#7A7A7A"/>
<path id="Path_6" d="M43.7495 26.0897C43.3789 26.2598 43.0138 26.4383 42.6523 26.6258C42.0813 26.9215 41.8585 27.6242 42.1541 28.1951C42.3612 28.5948 42.7671 28.8239 43.189 28.8239C43.3686 28.8239 43.5528 28.7819 43.7234 28.6932C44.0509 28.5237 44.3841 28.3611 44.7206 28.207C45.3052 27.9392 45.5622 27.2479 45.2938 26.6633C45.0265 26.0801 44.3409 25.8219 43.7495 26.0897Z" fill="#7A7A7A"/>
<path id="Path_7" d="M67.1338 27.7639C66.7914 27.5427 66.4423 27.3307 66.0876 27.1272C65.527 26.8065 64.8174 27.0015 64.4979 27.5593C64.1783 28.117 64.3716 28.8288 64.93 29.1478C65.2507 29.3308 65.5633 29.5225 65.8715 29.7209C66.0672 29.8466 66.2855 29.9069 66.5015 29.9069C66.8835 29.9069 67.2588 29.7187 67.4805 29.3736C67.8296 28.8334 67.6738 28.1125 67.1338 27.7639Z" fill="#7A7A7A"/>
<path id="Path_8" d="M77.1126 46.0113C76.4701 46.0432 75.9754 46.5901 76.0073 47.232C76.0255 47.5987 76.0346 47.9671 76.0346 48.3379C76.0346 48.9809 76.5554 49.5023 77.199 49.5023C77.8426 49.5023 78.3634 48.9809 78.3634 48.3379C78.3634 47.9285 78.3543 47.5214 78.3338 47.1161C78.3009 46.4735 77.7266 45.9601 77.1126 46.0113Z" fill="#7A7A7A"/>
<path id="Path_9" d="M70.9541 30.8017C70.4948 30.3532 69.7579 30.3622 69.3076 30.8222C68.8584 31.2828 68.8675 32.0196 69.328 32.4688C69.593 32.7269 69.8512 32.9913 70.1047 33.2619C70.3332 33.5076 70.6437 33.6315 70.9553 33.6315C71.2407 33.6315 71.5251 33.528 71.7501 33.3183C72.2197 32.8793 72.2448 32.1424 71.8059 31.6722C71.5296 31.3754 71.2441 31.0849 70.9541 30.8017Z" fill="#7A7A7A"/>
<path id="Path_10" d="M34.3339 33.6849C34.0905 34.0101 33.854 34.3417 33.6266 34.6805C33.2673 35.2138 33.4083 35.9376 33.9416 36.2964C34.1406 36.4311 34.3668 36.4954 34.5909 36.4954C34.965 36.4954 35.3323 36.3151 35.5575 35.9814C35.7644 35.6755 35.9782 35.3747 36.1988 35.0801C36.5842 34.5657 36.4785 33.8356 35.9645 33.4506C35.4483 33.0635 34.7183 33.1709 34.3339 33.6849Z" fill="#7A7A7A"/>
<path id="Path_11" d="M76.7684 43.7059C77.3915 43.5477 77.7691 42.9144 77.6109 42.2912C77.5098 41.8955 77.3995 41.5032 77.28 41.1149C77.0913 40.5007 76.4386 40.1551 75.8245 40.3433C75.2105 40.5321 74.8648 41.1836 75.0535 41.7983C75.1616 42.1502 75.2628 42.505 75.3527 42.8632C75.4868 43.3908 75.961 43.7416 76.4806 43.7416C76.5751 43.7416 76.6717 43.7303 76.7684 43.7059Z" fill="#7A7A7A"/>
<path id="Path_12" d="M38.5658 29.2982C38.2485 29.5542 37.9381 29.8179 37.6333 30.0897C37.1535 30.5178 37.1114 31.2535 37.5401 31.7334C37.7698 31.9915 38.0893 32.1229 38.4089 32.1229C38.6852 32.1229 38.9615 32.0256 39.1844 31.8272C39.4596 31.5817 39.7405 31.3428 40.0281 31.1109C40.5285 30.7072 40.6069 29.9743 40.2032 29.4733C39.8007 28.9742 39.0684 28.8935 38.5658 29.2982Z" fill="#7A7A7A"/>
<path id="Path_13" d="M31.0215 43.8707C30.3847 43.7842 29.7946 44.2226 29.7035 44.8589C29.6467 45.2608 29.599 45.6663 29.5615 46.0744C29.5035 46.7146 29.9753 47.281 30.6155 47.3396C30.6519 47.3424 30.6872 47.3441 30.7224 47.3441C31.3183 47.3441 31.8266 46.8897 31.8812 46.2848C31.9142 45.9164 31.9574 45.5508 32.0097 45.1875C32.1006 44.5506 31.6572 43.9611 31.0215 43.8707Z" fill="#7A7A7A"/>
<path id="Path_14" d="M32.8326 38.3488C32.2401 38.1072 31.5579 38.3845 31.3123 38.9805C31.1565 39.3557 31.0098 39.7355 30.8722 40.1205C30.6573 40.726 30.9723 41.3924 31.5784 41.6084C31.708 41.6545 31.8399 41.6766 31.9695 41.6766C32.4483 41.6766 32.8963 41.3792 33.0669 40.9027C33.1909 40.5542 33.3239 40.2097 33.4637 39.8697C33.7094 39.2756 33.4274 38.5944 32.8326 38.3488Z" fill="#7A7A7A"/>
<path id="Path_15" d="M59.8428 27.0177C60.1998 27.1167 60.5511 27.2236 60.9003 27.3396C61.0219 27.3805 61.1459 27.3999 61.2675 27.3999C61.7553 27.3999 62.2103 27.0905 62.3728 26.6027C62.5752 25.9927 62.2454 25.3331 61.6348 25.1301C61.2494 25.0016 60.8593 24.8822 60.4637 24.7731C59.8507 24.6054 59.2014 24.9652 59.0308 25.585C58.8591 26.2053 59.2229 26.8467 59.8428 27.0177Z" fill="#7A7A7A"/>
<path id="Path_16" d="M59.7341 61.1463C59.7341 57.9363 57.122 55.3242 53.912 55.3242C50.7018 55.3242 48.0898 57.9363 48.0898 61.1463C48.0898 61.715 48.5048 62.1664 49.045 62.2688C49.1156 62.2818 49.1803 62.3108 49.2543 62.3108C49.2974 62.3108 49.3339 62.2909 49.3759 62.2863C49.9593 62.2226 50.4187 61.7462 50.4187 61.1463C50.4187 59.2201 51.9856 57.6531 53.912 57.6531C55.8382 57.6531 57.4052 59.2201 57.4052 61.1463C57.4052 61.7558 57.8783 62.2414 58.4752 62.292C58.5083 62.2948 58.5367 62.3108 58.5697 62.3108C58.6333 62.3108 58.6879 62.2846 58.7481 62.2749C59.3031 62.1857 59.7341 61.7262 59.7341 61.1463Z" fill="#FFDC82"/>
<path id="Path_17" d="M64.8335 32.1233C64.2375 31.8793 63.5586 32.1619 63.3131 32.7566L55.1621 52.5518C54.9176 53.1466 55.2008 53.8272 55.7954 54.0722C55.941 54.1319 56.0911 54.1603 56.239 54.1603C56.6961 54.1603 57.1304 53.8886 57.3158 53.4389L65.4668 33.6437C65.7113 33.0489 65.4281 32.3683 64.8335 32.1233Z" fill="#9D9D9D"/>
</g>
</g>
<g id="Scene_2">
<path id="Shape_5" d="M46.6276 65.9995C46.6276 65.5491 46.4488 65.1173 46.1308 64.7997C45.8127 64.4821 45.3817 64.3049 44.9331 64.3074H38.1733C37.7089 64.3023 37.3351 63.923 37.3351 63.4567V56.6426C37.3351 55.7031 36.5765 54.9414 35.6406 54.9414H31.4226C30.4867 54.9414 29.728 55.7031 29.728 56.6426V63.4293C29.728 63.8991 29.3487 64.2799 28.8808 64.2799H22.121C21.1901 64.2799 20.4355 65.0375 20.4355 65.972V70.216C20.4355 71.1505 21.1901 71.9081 22.121 71.9081H28.9263C29.3943 71.9081 29.7736 72.2889 29.7736 72.7587V79.5453C29.7736 79.9957 29.9524 80.4275 30.2705 80.7451C30.5885 81.0627 31.0195 81.2399 31.4681 81.2374H35.6862C36.1347 81.2399 36.5658 81.0627 36.8838 80.7451C37.2019 80.4275 37.3807 79.9957 37.3807 79.5453V72.7861C37.3807 72.3199 37.7545 71.9405 38.2188 71.9355H44.9787C45.4272 71.9379 45.8583 71.7607 46.1763 71.4431C46.4944 71.1255 46.6732 70.6938 46.6732 70.2434L46.6276 65.9995Z" fill="#6DD627"/>
<path id="Shape_6" d="M35.6406 54.9688H31.4226C30.4973 54.9686 29.743 55.7137 29.728 56.6425V63.4292C29.728 63.899 29.3487 64.2798 28.8808 64.2798H22.121C21.1901 64.2798 20.4355 65.0374 20.4355 65.9719V70.2159C20.4355 71.1504 21.1901 71.908 22.121 71.908H25.8653L37.3351 60.4292V56.6425C37.3202 55.7137 36.5659 54.9686 35.6406 54.9688Z" fill="#9CEB60"/>
<path id="Shape_7" fill-rule="evenodd" clip-rule="evenodd" d="M46.6276 65.9995C46.6276 65.5491 46.4488 65.1173 46.1308 64.7997C45.8127 64.4821 45.3817 64.3049 44.9331 64.3074H38.1733C37.7089 64.3023 37.3351 63.923 37.3351 63.4567V56.6426C37.3351 55.7031 36.5765 54.9414 35.6406 54.9414H31.4226C30.4867 54.9414 29.728 55.7031 29.728 56.6426V63.4293C29.728 63.8991 29.3487 64.2799 28.8808 64.2799H22.121C21.1901 64.2799 20.4355 65.0375 20.4355 65.972V70.216C20.4355 71.1505 21.1901 71.9081 22.121 71.9081H28.9263C29.3943 71.9081 29.7736 72.2889 29.7736 72.7587V79.5453C29.7736 79.9957 29.9524 80.4275 30.2705 80.7451C30.5885 81.0627 31.0195 81.2399 31.4681 81.2374H35.6862C36.1347 81.2399 36.5658 81.0627 36.8838 80.7451C37.2019 80.4275 37.3807 79.9957 37.3807 79.5453V72.7861C37.3807 72.3199 37.7545 71.9405 38.2188 71.9355H44.9787C45.4272 71.9379 45.8583 71.7607 46.1763 71.4431C46.4944 71.1255 46.6732 70.6938 46.6732 70.2434L46.6276 65.9995Z" stroke="#191816" stroke-linejoin="round"/>
</g>
</g>
</svg>
